# xmcd
#
# Track frame offsets:
#	150
#	20567
#	47718
#
# Disc length: 908 seconds
#
# Revision: 1
# Processed by: cddbd v1.5.1PL2 Copyright (c) Steve Scherf et al.
# Submitted via: audiograbber 1.83.01
#
DISCID=1e038a03
DTITLE=TRF - Where to begin
DYEAR=2006
DGENRE=
TTITLE0=Where to begin
TTITLE1=TRUTH '94
TTITLE2=Where to begin -back Track-
EXTD=
EXTT0=
EXTT1=
EXTT2=
PLAYORDER=
